<svg xmlns="http://www.w3.org/2000/svg" width="82.156" height="26.989" viewBox="0 0 82.156 26.989">
  <g id="Group_2" data-name="Group 2" transform="translate(-0.011)">
    <g id="qaEJec" transform="translate(69.798 7.571)">
      <path id="Path_34" data-name="Path 34" d="M68.693,17.5a3.4,3.4,0,0,1-3.247-2.03l8.963-3.713-.3-.765a6.229,6.229,0,0,0-5.74-4.264,6.371,6.371,0,0,0-6.325,6.705A6.565,6.565,0,0,0,68.7,20.14a6.691,6.691,0,0,0,5.592-2.97l-2.284-1.519a3.842,3.842,0,0,1-3.3,1.845Zm-.228-8.179a2.588,2.588,0,0,1,2.486,1.422L64.966,13.23a3.687,3.687,0,0,1,3.51-3.908Z" transform="translate(-62.041 -6.729)" fill="#ea4335"/>
    </g>
    <g id="YGlOvc" transform="translate(65.469 0.754)">
      <path id="Path_35" data-name="Path 35" d="M58.193.67h2.885V20.291H58.193Z" transform="translate(-58.193 -0.67)" fill="#34a853"/>
    </g>
    <g id="BWfIk" transform="translate(50.872 7.578)">
      <path id="Path_36" data-name="Path 36" d="M55.269,8.232h-.1a4.658,4.658,0,0,0-3.528-1.5,6.707,6.707,0,0,0,0,13.4,4.584,4.584,0,0,0,3.528-1.53h.1v.968c0,2.565-1.369,3.938-3.581,3.938a3.688,3.688,0,0,1-3.375-2.385l-2.565,1.058a6.378,6.378,0,0,0,5.94,3.96c3.443,0,6.368-2.033,6.368-6.982V7.269h-2.79v.965ZM51.887,17.5a3.849,3.849,0,0,1-3.733-4.037,3.879,3.879,0,0,1,3.733-4.09c2.007,0,3.581,1.726,3.581,4.09A3.748,3.748,0,0,1,51.879,17.5Z" transform="translate(-45.218 -6.736)" fill="#4285f4"/>
    </g>
    <g id="e6m3fd" transform="translate(36.245 7.577)">
      <path id="Path_37" data-name="Path 37" d="M38.914,6.735a6.593,6.593,0,0,0-6.7,6.705,6.7,6.7,0,1,0,13.4,0,6.586,6.586,0,0,0-6.694-6.705Zm0,10.765a3.868,3.868,0,0,1-3.767-4.061,3.778,3.778,0,1,1,7.536,0A3.871,3.871,0,0,1,38.914,17.5Z" transform="translate(-32.217 -6.735)" fill="#fbbc05"/>
    </g>
    <g id="vbkDmc" transform="translate(21.618 7.547)">
      <path id="Path_38" data-name="Path 38" d="M25.915,6.71a6.592,6.592,0,0,0-6.7,6.7,6.7,6.7,0,1,0,13.4,0,6.594,6.594,0,0,0-6.7-6.705Zm0,10.763a3.869,3.869,0,0,1-3.769-4.061,3.779,3.779,0,1,1,7.538-.009,3.871,3.871,0,0,1-3.769,4.061Z" transform="translate(-19.216 -6.708)" fill="#ea4335"/>
    </g>
    <g id="idEJde" transform="translate(0.011)">
      <path id="Path_39" data-name="Path 39" d="M15.873,15.956a6.076,6.076,0,0,0,1.56-3.751H10.6V9.42h9.583a10.143,10.143,0,0,1,.18,1.872A9.447,9.447,0,0,1,17.9,17.968a9.543,9.543,0,0,1-7.29,2.936A10.593,10.593,0,0,1,.011,10.453,10.585,10.585,0,0,1,10.608,0a9.943,9.943,0,0,1,7.158,2.88l-2.016,2.01A7.276,7.276,0,0,0,10.6,2.854a7.493,7.493,0,0,0-7.5,7.594,7.5,7.5,0,0,0,7.5,7.594,6.973,6.973,0,0,0,5.277-2.088Z" transform="translate(-0.011)" fill="#4285f4"/>
    </g>
  </g>
</svg>
